<svg width="392" height="118" viewBox="0 0 392 118" fill="none" xmlns="http://www.w3.org/2000/svg">
<mask id="mask0_1_134" style="mask-type:luminance" maskUnits="userSpaceOnUse" x="120" y="14" width="272" height="66">
<path d="M140.92 17.85L120.92 73.45C120.18 75.5 121.7 77.66 123.88 77.66H129.57C130.89 77.66 132.07 76.83 132.53 75.59L146.21 38.05L172.11 77.93C173.35 79.84 176.16 79.84 177.39 77.93L203.08 38.17L216.76 75.61C217.21 76.85 218.39 77.68 219.72 77.68H225.62C227.8 77.68 229.32 75.51 228.58 73.46L208.48 17.93C207.6 15.49 204.31 15.11 202.89 17.28L174.65 60.32L146.52 17.21C145.89 16.24 144.89 15.78 143.89 15.78C142.64 15.78 141.41 16.5 140.92 17.86M351.98 34.7L361.31 49.13H342.75L351.97 34.7H351.98ZM349.33 16.89L313.31 72.83C311.96 74.92 313.47 77.68 315.96 77.68H322.58C323.65 77.68 324.65 77.14 325.23 76.24L335.7 59.99H368.26L378.73 76.24C379.31 77.14 380.31 77.68 381.38 77.68H388C390.49 77.68 391.99 74.92 390.65 72.83L354.64 16.89C354.02 15.93 353.01 15.45 351.99 15.45C350.97 15.45 349.96 15.93 349.34 16.89M230.11 47.4C230.11 65.31 249.1 79.85 272.65 79.85C293.27 79.85 310.2 70.19 310.2 50.33C310.2 48.59 308.79 47.18 307.05 47.18H282.09C280.35 47.18 278.94 48.59 278.94 50.33V54.78C278.94 56.52 280.35 57.93 282.09 57.93H297.28C295.11 65.96 283.17 69 272.64 69C255.93 69 242.47 59.45 242.47 47.4C242.47 35.35 255.93 25.69 272.64 25.69C281.24 25.69 289.71 28.9 296.27 34.35C298.31 36.05 301.4 34.56 301.4 31.91V25.32C301.4 24.25 300.86 23.24 299.95 22.67C292.17 17.72 282.64 14.84 272.64 14.84C249.09 14.84 230.1 29.49 230.1 47.4" fill="white"/>
</mask>
<g mask="url(#mask0_1_134)">
<path d="M391.99 14.83H120.18V79.85H391.99V14.83Z" fill="url(#paint0_linear_1_134)"/>
</g>
<mask id="mask1_1_134" style="mask-type:luminance" maskUnits="userSpaceOnUse" x="0" y="0" width="62" height="80">
<path d="M8.61 8.54C2.9 13.82 0 20.53 0 28.49C0 35.08 1.95 41.32 5.79 47.04C9.06 51.86 14.9 58.06 23.63 65.98L37.19 78.7C39.68 80.54 43.18 80.18 45.2 77.93C47.3 75.59 47.18 71.9 44.88 69.65C37.84 63.29 38.92 64.23 31.89 57.86C24.57 51.3 19.45 45.76 16.65 41.41C14.01 37.29 12.67 33.08 12.67 28.88C12.67 23.94 14.35 20.02 17.8 16.9C21.33 13.71 25.46 12.16 30.43 12.16C35.4 12.16 39.85 13.44 43.69 15.97C46.1 17.63 48.56 19.97 51.06 22.96C51.04 22.96 51.03 22.96 51.01 22.96C51.7 23.86 52.91 25.67 53.37 28.27C53.98 31.67 52.94 34.37 52.48 35.41C54.44 35.41 57.18 34.49 59.39 32.08C61.62 29.65 64.38 20.5 58.34 13.42C58.34 13.42 58.33 13.41 58.32 13.4C56.77 11.6 55.23 9.46 50.53 6.33C44.8 2.57 37.82 0.669998 29.78 0.669998C21.74 0.669998 14.28 3.32 8.62 8.54" fill="white"/>
</mask>
<g mask="url(#mask1_1_134)">
<path d="M64.36 0.659996H0V80.54H64.36V0.659996Z" fill="url(#paint1_linear_1_134)"/>
</g>
<mask id="mask2_1_134" style="mask-type:luminance" maskUnits="userSpaceOnUse" x="0" y="0" width="62" height="37">
<path d="M8.61 8.54C2.9 13.82 0 20.53 0 28.49C0 31.37 0.37 34.19 1.11 36.92C1.36 33.9 2.25 28.81 5.7 23.88C13.85 12.2 28.8 12.14 30.42 12.16C35.37 12.16 39.84 13.44 43.68 15.97C46.09 17.63 48.55 19.97 51.05 22.96C51.03 22.96 51.02 22.96 51 22.96C51.69 23.86 52.9 25.67 53.36 28.27C53.97 31.67 52.93 34.37 52.47 35.41C54.43 35.41 57.17 34.49 59.38 32.08C61.61 29.65 64.37 20.5 58.33 13.42C58.33 13.42 58.32 13.41 58.31 13.4C56.76 11.6 55.22 9.46 50.52 6.33C44.79 2.57 37.81 0.669998 29.77 0.669998C21.73 0.669998 14.27 3.32 8.61 8.54Z" fill="white"/>
</mask>
<g mask="url(#mask2_1_134)">
<path d="M64.36 0.659996H0V36.92H64.36V0.659996Z" fill="url(#paint2_linear_1_134)"/>
</g>
<mask id="mask3_1_134" style="mask-type:luminance" maskUnits="userSpaceOnUse" x="43" y="0" width="63" height="93">
<path d="M75.3 0.66C67.26 0.66 60.28 2.56 54.55 6.32C52.91 7.42 51.65 8.39 50.64 9.27C50.3 9.57 49.99 9.85 49.71 10.12C49.7 10.13 49.68 10.15 49.67 10.16C49.67 10.16 49.66 10.17 49.65 10.18C48.38 11.41 47.57 12.45 46.75 13.4C46.75 13.4 46.74 13.42 46.73 13.42C40.7 20.5 43.46 29.65 45.68 32.08C47.89 34.49 50.63 35.41 52.59 35.41C52.13 34.37 51.09 31.67 51.7 28.27C52.16 25.67 53.37 23.86 54.06 22.96C56.55 19.98 59.02 17.64 61.42 15.98C65.26 13.45 69.72 12.17 74.68 12.17C79.64 12.17 83.78 13.72 87.31 16.91C90.76 20.03 92.44 23.94 92.44 28.89C92.44 33.09 91.1 37.31 88.46 41.42C85.66 45.78 80.54 51.31 73.22 57.87L48.75 82.23C48.75 82.23 48.71 82.27 48.7 82.28L48.68 82.3C47.65 83.35 47.02 84.79 47.02 86.38C47.02 89.61 49.64 92.22 52.86 92.22C54.43 92.22 55.85 91.6 56.89 90.6L56.94 90.56C56.97 90.53 57 90.5 57.03 90.47L81.48 65.98C90.21 58.05 96.04 51.86 99.32 47.04C103.16 41.32 105.11 35.08 105.11 28.49C105.11 20.54 102.21 13.83 96.5 8.54C90.84 3.31 83.73 0.67 75.34 0.67H75.31" fill="white"/>
</mask>
<g mask="url(#mask3_1_134)">
<path d="M94.6263 -19.0035L8.33435 12.4042L45.293 113.947L131.585 82.5397L94.6263 -19.0035Z" fill="url(#paint3_linear_1_134)"/>
</g>
<path d="M230.76 106.35C230.76 99.72 235.31 95.6 240.2 95.6C243.13 95.6 246.1 97.03 247.75 100.07H247.79L248.14 96.02H250.26V116.68H248.14L247.79 112.63H247.75C246.09 115.67 243.13 117.1 240.2 117.1C235.31 117.1 230.76 112.94 230.76 106.35ZM240.55 114.6C244.52 114.6 247.72 111.25 247.72 106.31C247.72 101.37 244.52 98.1 240.55 98.1C236.58 98.1 233.38 101.38 233.38 106.35C233.38 111.32 236.54 114.6 240.55 114.6Z" fill="#D6282A"/>
<path d="M263.17 87.08C264.25 87.08 264.98 87.81 264.98 88.81C264.98 89.81 264.25 90.58 263.17 90.58C262.09 90.58 261.4 89.85 261.4 88.81C261.4 87.77 262.13 87.08 263.17 87.08ZM261.86 96.02H264.48V116.68H261.86V96.02Z" fill="#D6282A"/>
<path d="M276.15 96.02H278.23L278.54 99.37H278.58C280.01 96.63 282.74 95.79 284.59 95.79C285.09 95.79 285.51 95.83 285.9 95.87V98.41C285.48 98.33 285.01 98.29 284.55 98.29C281.7 98.29 278.77 100.18 278.77 104.3V116.67H276.15V96.01V96.02Z" fill="#D6282A"/>
<path d="M294.77 85.92H297.39V116.68H294.77V85.92Z" fill="#D6282A"/>
<path d="M310.45 87.08C311.53 87.08 312.26 87.81 312.26 88.81C312.26 89.81 311.53 90.58 310.45 90.58C309.37 90.58 308.68 89.85 308.68 88.81C308.68 87.77 309.41 87.08 310.45 87.08ZM309.14 96.02H311.76V116.68H309.14V96.02Z" fill="#D6282A"/>
<path d="M339.71 103.04V116.68H337.09V104.15C337.09 100.1 335.24 98.18 331.77 98.18C328.57 98.18 326.07 100.57 326.07 103.92V116.68H323.45V96.02H325.45L325.8 99.22H325.88C327.04 97.29 329.31 95.6 332.28 95.6C336.75 95.6 339.72 98.53 339.72 103.04H339.71Z" fill="#D6282A"/>
<path d="M349.65 106.43C349.65 99.68 354.27 95.6 359.44 95.6C364.22 95.6 368.11 99.15 368.11 105.93C368.11 106.47 368.07 106.89 368.03 107.32H352.27C352.69 111.83 355.66 114.64 359.86 114.64C362.25 114.64 364.76 113.75 366.99 111.71V114.64C364.87 116.3 362.44 117.11 359.74 117.11C353.61 117.11 349.64 112.87 349.64 106.43H349.65ZM365.57 105.04C365.45 100.18 362.49 98.02 359.4 98.02C355.89 98.02 352.77 100.68 352.31 105.04H365.57Z" fill="#D6282A"/>
<path d="M390.38 97.41V100.3C388.92 98.99 386.72 98.06 384.25 98.06C381.4 98.06 379.78 99.37 379.78 101.26C379.78 103.42 381.75 104.11 384.71 105.04C387.79 106 391.42 106.97 391.42 111.09C391.42 114.75 388.57 117.1 384.06 117.1C381.52 117.1 378.97 116.33 377.01 114.67V111.55C378.59 113.25 381.06 114.63 384.02 114.63C386.98 114.63 388.84 113.17 388.84 111.12C388.84 108.81 386.72 108.08 383.64 107.11C380.17 106.03 377.17 105.03 377.17 101.44C377.17 98.05 379.94 95.58 384.3 95.58C386.61 95.58 388.96 96.27 390.39 97.39L390.38 97.41Z" fill="#D6282A"/>
<defs>
<linearGradient id="paint0_linear_1_134" x1="120.187" y1="47.5724" x2="391.156" y2="47.5724" gradientUnits="userSpaceOnUse">
<stop stop-color="#005386"/>
<stop offset="1" stop-color="#202E4F"/>
</linearGradient>
<linearGradient id="paint1_linear_1_134" x1="-1.0116" y1="38.9953" x2="61.0671" y2="38.9953" gradientUnits="userSpaceOnUse">
<stop stop-color="#88171A"/>
<stop offset="0.45" stop-color="#DA1F28"/>
<stop offset="1" stop-color="#F1564C"/>
</linearGradient>
<linearGradient id="paint2_linear_1_134" x1="-1.0116" y1="16.5027" x2="61.0671" y2="16.5027" gradientUnits="userSpaceOnUse">
<stop stop-color="#F1564C"/>
<stop offset="0.55" stop-color="#DA1F28"/>
<stop offset="1" stop-color="#88171A"/>
</linearGradient>
<linearGradient id="paint3_linear_1_134" x1="56.8342" y1="3.12507" x2="84.7006" y2="79.6873" gradientUnits="userSpaceOnUse">
<stop stop-color="#EA2026"/>
<stop offset="0.13" stop-color="#EA2026"/>
<stop offset="0.27" stop-color="#A12F3F"/>
<stop offset="0.57" stop-color="#055075"/>
<stop offset="1" stop-color="#055075"/>
</linearGradient>
</defs>
</svg>
